<svg enable-background="new 0 0 140 140" height="512" viewBox="0 0 140 140" width="512" xmlns="http://www.w3.org/2000/svg"><circle cx="70" cy="70" fill="#509fd7" r="64"/><path d="m133.9599609 68.5200195c.0100098.5.0400391.9799805.0400391 1.4799805 0 35.3500977-28.6500244 64-64 64-.6400146 0-1.2800293-.0300293-1.9199219-.0500488l-22.2000732-22.1999512.0599365-.0500488c-.5899658-.7299805-.9599609-1.6499023-.9599609-2.6599121v-37.1899414l-14.3399659-14.3400879v-7.2800293h14.3399658v-19.1298828c0-2.3500977 1.9000244-4.25 4.25-4.25h41.3300781c1.2999268 0 2.4599609.5998535 3.2299805 1.5200195l.0100098-.0102539z" opacity=".1"/><path d="m90.560257 26.8492088h-41.332161c-2.3475609 0-4.2506981 1.9031372-4.2506981 4.250761v77.9366302c0 2.3476257 1.9031372 4.2507629 4.2506981 4.2507629h41.3320923c2.3476257 0 4.2507629-1.9031372 4.2507629-4.2507629v-77.9366301c0-2.3476239-1.9030761-4.2507611-4.2506942-4.2507611z" fill="#e6e7e8"/><path d="m48.091473 39.068939h43.605404v57.025017h-43.605404z" fill="#d6b251"/><path d="m76.5451431 32.2005463h-13.301876c-.4189529 0-.7585907.3395729-.7585907.7584648 0 .4188957.3396378.7587242.7585907.7587242h13.3018761c.4189606 0 .7585983-.3398285.7585983-.7587242 0-.4188919-.3396378-.7584648-.7585984-.7584648z" fill="#dad7dc"/><circle cx="69.894" cy="104.691" fill="#dad7dc" r="3.749"/><path d="m30.643713 50.230022h41.301441v7.279213h-41.301441z" fill="#ececec"/><path d="m70.598297 50.230022h8.374435v7.279213h-8.374435z" fill="#db584d" transform="matrix(-1 0 0 -1 149.571 107.739)"/><path d="m77.557869 56.1021347-1.4970627-1.4970665c.2753525-.3855858.4288254-.842926.4288254-1.3267288 0-.6127663-.2389221-1.1890068-.6724014-1.6221161-.8938065-.8938065-2.3496857-.8945503-3.2449799 0-.8945541.8945503-.8945541 2.3504295 0 3.2449799.4472733.4472733 1.0350647.6709137 1.6224899.6709137.4663315 0 .9292603-.1468582 1.3253326-.4282684l1.498085 1.4980011c.0745468.074543.1722031.1118164.2698593.1118164s.1953125-.0372734.2698517-.1118164c.1490937-.1490937.1490937-.3906213.0000001-.5397149zm-4.4459076-1.7406425c-.5971146-.5971146-.5971146-1.5684471 0-2.1655579.2985535-.2981834.6906662-.4472733 1.0827789-.4472733.3921051 0 .7842178.1490898 1.0827789.4472733.289238.289238.448761.673893.448761 1.0824051 0 .409256-.159523.7939148-.448761 1.0831528-.5971145.5963668-1.5684509.5963668-2.1655578 0z" fill="#ececec"/><path d="m62.484676 66.42868h46.871613v7.279213h-46.871613z" fill="#dad7dc" transform="matrix(-1 0 0 -1 171.841 140.137)"/><path d="m70.555656 66.42868h30.426199v7.279213h-30.426199z" fill="#467080"/><path d="m62.181217 66.42868h8.374435v7.279213h-8.374435z" fill="#dad7dc" transform="matrix(-1 0 0 -1 132.737 140.137)"/><circle cx="66.368" cy="70.068" fill="#e6e7e8" r="2.478"/><path d="m67.8325729 69.8550034-1.827652-1.1989822c-.2026215-.133049-.4927826-.0073166-.4927826.2133713v2.3979645c0 .2205048.2901611.3462372.4927826.2131882l1.8275986-1.1987991c.1630555-.1069643.1630555-.3197786.0000534-.4267427z" fill="#d49145"/><path d="m71.945152 69.644447h27.647194v.847673h-27.647194z" fill="#e7a04e"/><circle cx="79.627" cy="70.068" fill="#ececec" r="1.467"/><path d="m106.8921204 68.2518158v3.6329346l-1.1521454-.6953659h-1.1729202c-.6123734 0-1.1210403-.4982071-1.1210403-1.1211014 0-.6226349.508667-1.1208496 1.1210403-1.1208496h1.1729202z" fill="#b0b1b5"/></svg>