<?xml version="1.0" encoding="iso-8859-1"?>
<!-- Generator: Adobe Illustrator 19.0.0, SVG Export Plug-In . SVG Version: 6.00 Build 0)  -->
<svg version="1.1" id="Layer_1" xmlns="http://www.w3.org/2000/svg" xmlns:xlink="http://www.w3.org/1999/xlink" x="0px" y="0px"
	 viewBox="0 0 509.287 509.287" style="enable-background:new 0 0 509.287 509.287;" xml:space="preserve">
<circle style="fill:#29B36F;" cx="254.644" cy="254.644" r="254.644"/>
<rect x="50.861" y="178.691" style="fill:#646B79;" width="407.566" height="180.726"/>
<g>
	<polygon style="fill:#DEDEDF;" points="365.86,159.025 143.428,159.025 186.151,72.223 323.136,72.223 	"/>
	<path style="fill:#DEDEDF;" d="M50.861,369.25c0,9.155,7.46,16.276,16.276,16.276h374.675c9.155,0,16.276-7.46,16.276-16.276
		v-9.833H50.861V369.25z"/>
	<path style="fill:#DEDEDF;" d="M458.427,139.359c0-9.155-7.46-16.275-16.276-16.275H67.136c-9.155,0-16.275,7.46-16.275,16.275
		v39.332h407.566L458.427,139.359L458.427,139.359z"/>
</g>
<g>
	<circle style="opacity:0.5;fill:#393D47;enable-background:new    ;" cx="254.644" cy="263.46" r="105.113"/>
	<circle style="fill:#393D47;" cx="254.644" cy="254.305" r="105.113"/>
</g>
<circle style="fill:#414753;" cx="254.644" cy="254.305" r="87.82"/>
<circle style="fill:#646B79;" cx="254.644" cy="254.305" r="72.901"/>
<circle style="fill:#4484C5;" cx="254.644" cy="254.305" r="56.625"/>
<ellipse transform="matrix(-0.7071 -0.7071 0.7071 -0.7071 233.9314 573.1929)" style="fill:#6EB1E1;" cx="235.678" cy="238.148" rx="18.988" ry="31.533"/>
<path style="fill:#4B5AA7;" d="M418.416,140.715h-42.045c-3.052,0-5.425,2.374-5.425,5.425v14.58c0,3.052,2.374,5.425,5.425,5.425
	h42.045c3.052,0,5.425-2.374,5.425-5.425v-14.58C423.841,143.428,421.468,140.715,418.416,140.715z"/>
<path style="fill:#FCFCFD;" d="M295.672,84.429h-82.056c-6.103,0-10.85,4.747-10.85,10.85v28.482c0,6.103,4.747,10.85,10.85,10.85
	h82.056c6.103,0,10.85-4.747,10.85-10.85V95.279C306.522,89.515,301.775,84.429,295.672,84.429z"/>
<path style="fill:#393D47;" d="M127.152,109.521H90.193c-3.391,0-6.103,2.713-6.103,6.103v7.46h49.166v-7.46
	C132.917,112.233,130.543,109.521,127.152,109.521z"/>
<rect x="102.061" y="101.044" style="fill:#DEDEDF;" width="12.546" height="8.477"/>
<g>
</g>
<g>
</g>
<g>
</g>
<g>
</g>
<g>
</g>
<g>
</g>
<g>
</g>
<g>
</g>
<g>
</g>
<g>
</g>
<g>
</g>
<g>
</g>
<g>
</g>
<g>
</g>
<g>
</g>
</svg>
