<svg height="512pt" viewBox="0 0 512 512" width="512pt" xmlns="http://www.w3.org/2000/svg"><path d="m256 0c-141.386719 0-256 114.613281-256 256s114.613281 256 256 256 256-114.613281 256-256-114.613281-256-256-256zm0 0" fill="#ff468c"/><path d="m511.324219 237.445312-72.332031-72.335937-342.324219 39.605469v251.652344c43.722656 34.816406 99.09375 55.632812 159.332031 55.632812 141.386719 0 256-114.613281 256-256 0-6.238281-.234375-12.425781-.675781-18.554688zm0 0" fill="#be1964"/><path d="m25.550781 367.601562c41.464844 85.46875 129.074219 144.398438 230.449219 144.398438s188.984375-58.929688 230.449219-144.398438zm0 0" fill="#7f3de8"/><path d="m256 367.601562v144.398438c101.375 0 188.984375-58.929688 230.449219-144.398438zm0 0" fill="#5600c6"/><path d="m73.007812 187h34.121094v207.601562h-34.121094zm0 0" fill="#ffce00"/><path d="m404.871094 187h34.121094v207.601562h-34.121094zm0 0" fill="#ffb600"/><path d="m238.941406 187h34.121094v207.601562h-34.121094zm0 0" fill="#ffce00"/><path d="m256 187h17.058594v207.601562h-17.058594zm0 0" fill="#ffb600"/><path d="m438.992188 210.109375h-365.984376v-45l182.992188-100 182.992188 100zm0 0" fill="#fff"/><path d="m438.992188 165.109375-182.992188-100v145h182.992188zm0 0" fill="#e9edf5"/><path d="m327.617188 210.109375h-143.234376v-45l71.617188-100 71.617188 100zm0 0" fill="#e6e6e6"/><path d="m327.617188 165.109375-71.617188-100v145h71.617188zm0 0" fill="#cdcdcd"/></svg>